<svg width="1369" height="943" viewBox="0 0 1369 943" fill="none" xmlns="http://www.w3.org/2000/svg">
<path fill-rule="evenodd" clip-rule="evenodd" d="M320.623 296.753C404.101 294.943 726.44 47.6683 799 89C870.31 129.62 1015.27 313.632 1032 394C1046.74 464.814 1127.51 755.946 1109.5 826C1090.62 899.429 693.353 847.047 637 897.745C575.622 952.965 419.475 938.53 337 942C252.891 945.539 166.207 912.841 108 852C68.6894 810.911 25.0519 784.335 7.50534e-05 743.5C0.000108194 685 5.75297e-05 705 5.75297e-05 642.5C-1 580.5 21.856 552.298 31.6521 488.008C43.6618 409.19 21.4936 305.57 87.9606 261.579C155.016 217.198 240.239 298.496 320.623 296.753Z" fill="#B3E3EC"/>
<path fill-rule="evenodd" clip-rule="evenodd" d="M594 0C694.462 -2.97655e-05 626.5 -3.05176e-05 721 -3.05176e-05C839.844 -3.05176e-05 831 -3.05176e-05 831 -3.05176e-05C831 -3.05176e-05 877.801 170.34 811.507 277.971C746.38 383.706 575.716 347.405 479.721 426.169C372.723 513.961 371.285 719.488 236.284 749.942C106.407 779.24 101.447 723.655 -0.5 638C-0.5 545 -0.000215471 370.5 -0.000215471 244.5C-0.000215471 84.5002 0 -3.05176e-05 0 -3.05176e-05C0 -3.05176e-05 250.123 -3.05176e-05 387 -3.05176e-05C487 -3.05176e-05 491 3.05176e-05 594 0Z" fill="#E0C5F1"/>
<g clip-path="url(#clip0)">
<path d="M753.709 474.862C783.371 474.862 807.417 450.812 807.417 421.146C807.417 391.479 783.371 367.43 753.709 367.43C724.046 367.43 700 391.479 700 421.146C700 450.812 724.046 474.862 753.709 474.862Z" fill="#FF6584"/>
<path d="M1323.11 766.726C1322.87 775.87 1321.33 784.933 1318.56 793.649C1318.5 793.852 1318.43 794.051 1318.37 794.253H1301.39C1301.41 794.072 1301.43 793.87 1301.44 793.649C1302.58 780.634 1309.1 701.423 1301.3 687.877C1301.98 688.976 1324.43 725.372 1323.11 766.726Z" fill="#E6E6E6"/>
<path d="M1321.84 793.649C1321.7 793.852 1321.55 794.054 1321.4 794.253H1308.66C1308.76 794.081 1308.87 793.879 1309 793.649C1311.1 789.851 1317.33 778.497 1323.11 766.726C1329.32 754.077 1335.02 740.947 1334.54 736.195C1334.69 737.267 1338.99 769.938 1321.84 793.649Z" fill="#E6E6E6"/>
<path d="M1369 793.096H880.84V794.693H1369V793.096Z" fill="#E6E6E6"/>
<path d="M1193.31 842.966L1195.68 823.4L1262.67 806.205L1254.96 783.081C1260.33 767.68 1269.76 760.131 1286.98 767.665L1316.6 786.068C1319.48 787.856 1321.82 790.386 1323.39 793.391C1324.95 796.397 1325.68 799.768 1325.5 803.152V803.152C1325.32 806.55 1324.23 809.836 1322.33 812.663C1320.44 815.49 1317.82 817.753 1314.74 819.214C1281.58 834.934 1239.32 840.949 1193.31 842.966Z" fill="#FFB8B8"/>
<path d="M1197.46 848.895L1176.71 845.931L1157.3 849.892C1156.11 850.135 1154.88 850.116 1153.7 849.838C1152.52 849.56 1151.42 849.029 1150.46 848.281C1149.5 847.533 1148.72 846.586 1148.17 845.506C1147.61 844.427 1147.3 843.239 1147.25 842.027V842.027C1147.19 840.671 1147.47 839.321 1148.05 838.094C1148.63 836.867 1149.5 835.799 1150.58 834.982L1180.99 812.066C1183.6 810.1 1186.82 809.129 1190.08 809.326C1193.34 809.524 1196.43 810.876 1198.78 813.142L1206.35 820.435C1200.93 823.797 1196.9 828.843 1194.49 835.851C1199.7 838.715 1200.69 843.063 1197.46 848.895Z" fill="#2F2E41"/>
<path d="M1217.28 643.469C1227.87 643.469 1236.46 634.877 1236.46 624.277C1236.46 613.678 1227.87 605.085 1217.28 605.085C1206.68 605.085 1198.09 613.678 1198.09 624.277C1198.09 634.877 1206.68 643.469 1217.28 643.469Z" fill="#FFB8B8"/>
<path d="M1247.26 662.124L1204.28 680.209C1207.77 662.667 1209.51 646.687 1204.28 636.925L1231.84 633.664C1230.47 641.166 1237.45 651.213 1247.26 662.124Z" fill="#FFB8B8"/>
<path d="M1174.34 842.373L1158.33 841.187C1148.52 800.291 1143.5 761.635 1145.69 726.357C1146 721.206 1148.3 716.376 1152.09 712.88C1155.88 709.384 1160.88 707.493 1166.04 707.604C1171 707.717 1175.73 709.673 1179.32 713.091L1200.02 732.792C1209.26 741.509 1216.42 752.18 1221 764.023C1226.86 779.379 1224.76 787.988 1210.76 786.526C1202.02 785.551 1193.97 781.274 1188.27 774.569L1173.15 756.992L1174.34 842.373Z" fill="#FFB8B8"/>
<path d="M1161.94 890.971C1159.84 890.834 1157.8 890.216 1155.98 889.164C1154.16 888.113 1152.61 886.656 1151.44 884.907C1150.27 883.158 1149.53 881.164 1149.25 879.079C1148.98 876.994 1149.19 874.874 1149.87 872.884L1152.99 863.719L1155.37 840.595C1159.02 833.139 1164.19 834.255 1170.19 840.002C1174 839.627 1174.82 835.816 1174.34 830.515L1186.36 846.696C1187.38 848.08 1188.02 849.716 1188.2 851.431C1188.39 853.147 1188.1 854.879 1187.39 856.449L1175.29 882.985C1174.14 885.514 1172.25 887.632 1169.86 889.058C1167.48 890.485 1164.71 891.152 1161.94 890.971V890.971Z" fill="#2F2E41"/>
<path d="M1313.36 783.97C1291.42 796.422 1284.55 796.783 1262.67 805.612L1243.7 794.939C1221.42 803.179 1205.79 791.884 1188.86 775.076C1199.94 756.622 1195.04 732.64 1201.9 732.979L1284.01 758.771L1287.57 767.665L1313.36 783.97Z" fill="#2F2E41"/>
<path d="M1286.98 764.7C1257.99 777.251 1226.77 763.963 1200.13 734.758L1182.48 663.498C1182.28 662.714 1182.23 661.894 1182.35 661.091C1182.47 660.288 1182.75 659.518 1183.18 658.828C1183.61 658.139 1184.18 657.544 1184.85 657.082C1185.51 656.62 1186.27 656.299 1187.06 656.14L1207.54 652.045L1217.61 668.054L1237.77 650.266L1259.18 657.265C1262.02 658.196 1264.56 659.882 1266.53 662.144C1268.49 664.407 1269.8 667.159 1270.32 670.109L1286.98 764.7Z" fill="#7500C0"/>
<path opacity="0.2" d="M1240.93 825.11C1239.36 824.514 1237.96 823.552 1236.85 822.303C1235.73 821.054 1234.93 819.556 1234.52 817.934C1234.1 816.313 1234.08 814.614 1234.45 812.982C1234.83 811.35 1235.59 809.832 1236.67 808.555L1250.22 792.568L1259.71 797.904L1254.82 817.82C1254.47 819.261 1253.81 820.611 1252.9 821.779C1251.98 822.948 1250.83 823.909 1249.52 824.598C1248.2 825.287 1246.76 825.689 1245.28 825.778C1243.8 825.866 1242.31 825.639 1240.93 825.11Z" fill="black"/>
<path d="M1240.93 822.739C1239.36 822.143 1237.96 821.18 1236.85 819.931C1235.73 818.683 1234.93 817.184 1234.52 815.563C1234.1 813.941 1234.08 812.243 1234.45 810.611C1234.83 808.979 1235.59 807.46 1236.67 806.183L1250.22 790.196L1259.71 795.532L1254.82 815.448C1254.47 816.889 1253.81 818.239 1252.9 819.408C1251.98 820.576 1250.83 821.537 1249.52 822.226C1248.2 822.916 1246.76 823.318 1245.28 823.406C1243.8 823.494 1242.31 823.267 1240.93 822.739V822.739Z" fill="#FFB8B8"/>
<path d="M1262.08 800.276L1247.85 790.789L1268.6 735.647L1260.89 657.974L1267.92 662.369C1271.7 664.727 1274.95 667.828 1277.49 671.482C1280.03 675.136 1281.8 679.269 1282.69 683.628L1294.09 739.204C1289.1 764.822 1280.79 787.361 1262.08 800.276Z" fill="#7500C0"/>
<path opacity="0.2" d="M1253.48 712.227L1260.6 747.802L1254.74 768.608L1253.48 712.227Z" fill="black"/>
<path d="M1198.51 622.632C1198.51 622.632 1187.45 586.437 1221.25 594.028C1226.49 595.205 1231.02 598.253 1234.62 602.239C1234.94 602.587 1235.34 602.861 1235.78 603.041C1236.22 603.221 1236.69 603.302 1237.17 603.279C1242.57 603.279 1245.9 622.574 1235.1 631.059C1235.1 631.059 1237.31 619.641 1233.3 615.751C1232.58 615.092 1231.98 614.316 1231.52 613.455C1228.91 608.197 1220.15 606.471 1214.11 606.918C1211.02 607.147 1210.75 612.526 1207.34 611.775C1199.57 610.065 1197.09 619.068 1198.51 622.632Z" fill="#2F2E41"/>
<path d="M1232.53 676.353L1232.3 677.992L1230.92 688.104L1228.66 704.664L1228.09 708.81C1228.05 709.127 1227.89 709.417 1227.65 709.627C1227.41 709.837 1227.1 709.953 1226.78 709.953H1211.7C1211.38 709.953 1211.08 709.838 1210.83 709.628C1210.59 709.419 1210.44 709.129 1210.39 708.814L1209.82 704.664L1207.52 688.104L1206.11 677.985L1205.89 676.356C1205.86 676.169 1205.87 675.979 1205.93 675.798C1205.98 675.617 1206.07 675.45 1206.2 675.307C1206.32 675.165 1206.48 675.05 1206.65 674.972C1206.82 674.894 1207.01 674.853 1207.19 674.853H1231.22C1231.41 674.853 1231.59 674.894 1231.76 674.972C1231.93 675.05 1232.09 675.164 1232.21 675.306C1232.34 675.448 1232.43 675.615 1232.48 675.796C1232.54 675.976 1232.55 676.167 1232.53 676.353V676.353Z" fill="#E6E6E6"/>
<path d="M1208.79 670.466H1229.7C1229.88 670.466 1230.05 670.5 1230.21 670.567C1230.37 670.633 1230.51 670.73 1230.64 670.853C1230.76 670.976 1230.86 671.121 1230.92 671.282C1230.99 671.442 1231.02 671.614 1231.02 671.787V673.532C1231.02 673.883 1230.89 674.219 1230.64 674.467C1230.39 674.714 1230.05 674.854 1229.7 674.854H1208.79C1208.44 674.854 1208.1 674.714 1207.85 674.467C1207.6 674.219 1207.47 673.883 1207.47 673.532V671.787C1207.47 671.614 1207.5 671.442 1207.57 671.282C1207.63 671.121 1207.73 670.976 1207.85 670.853C1207.97 670.73 1208.12 670.633 1208.28 670.567C1208.44 670.5 1208.61 670.466 1208.79 670.466V670.466Z" fill="#3F3D56"/>
<path d="M1234.42 677.047C1224.33 678.148 1214.16 678.148 1204.07 677.047C1203.9 677.047 1203.73 677.013 1203.57 676.947C1203.41 676.88 1203.26 676.783 1203.14 676.66C1203.02 676.538 1202.92 676.392 1202.85 676.232C1202.79 676.072 1202.75 675.9 1202.75 675.726V673.981C1202.75 673.807 1202.79 673.636 1202.85 673.475C1202.92 673.315 1203.02 673.169 1203.14 673.047C1203.26 672.924 1203.41 672.827 1203.57 672.76C1203.73 672.694 1203.9 672.66 1204.07 672.66C1214.15 673.899 1224.34 673.899 1234.42 672.66C1234.77 672.66 1235.1 672.799 1235.35 673.047C1235.6 673.295 1235.74 673.631 1235.74 673.981V675.726C1235.74 676.077 1235.6 676.413 1235.35 676.66C1235.1 676.908 1234.77 677.047 1234.42 677.047V677.047Z" fill="#3F3D56"/>
<path d="M1218.63 697.321C1221.78 697.321 1224.33 694.768 1224.33 691.619C1224.33 688.47 1221.78 685.917 1218.63 685.917C1215.48 685.917 1212.93 688.47 1212.93 691.619C1212.93 694.768 1215.48 697.321 1218.63 697.321Z" fill="white"/>
<path d="M1233.29 703.614C1233.46 705.28 1233.23 706.963 1232.62 708.522C1232.01 710.081 1231.03 711.47 1229.77 712.574C1228.52 713.677 1227.01 714.462 1225.38 714.863C1223.76 715.265 1222.06 715.27 1220.43 714.879L1200.05 709.986L1200.54 699.112L1220.52 694.496C1221.96 694.162 1223.46 694.139 1224.92 694.428C1226.38 694.718 1227.75 695.314 1228.96 696.176C1230.17 697.038 1231.18 698.147 1231.92 699.43C1232.67 700.712 1233.14 702.139 1233.29 703.614V703.614Z" fill="#FFB8B8"/>
<path d="M1205.76 711.93L1150.76 713.305C1148.78 713.355 1146.81 712.971 1144.98 712.18C1143.16 711.39 1141.54 710.211 1140.22 708.727C1138.9 707.243 1137.92 705.489 1137.34 703.588C1136.77 701.686 1136.62 699.682 1136.9 697.716V697.716C1137.34 694.636 1138.82 691.798 1141.09 689.672L1166.98 665.446C1171.79 660.953 1177.77 657.923 1184.23 656.711L1193.31 655.009L1198.64 695.328L1167.82 691.771L1203.98 695.921L1205.76 711.93Z" fill="#7500C0"/>
<path d="M1133.31 830.241H992.913C991.664 830.241 990.467 829.745 989.584 828.862C988.701 827.979 988.205 826.782 988.205 825.533V825.533C1039.1 819.617 1089.04 819.617 1138.02 825.533C1138.02 826.782 1137.52 827.979 1136.64 828.862C1135.75 829.745 1134.56 830.241 1133.31 830.241Z" fill="#2F2E41"/>
<path d="M1138.02 825.81L988.205 825.533L1005.57 796.314L1005.65 796.176V731.782C1005.65 731 1005.8 730.226 1006.1 729.504C1006.4 728.782 1006.84 728.126 1007.39 727.573C1007.95 727.021 1008.6 726.582 1009.32 726.283C1010.05 725.984 1010.82 725.83 1011.6 725.83H1113.79C1114.57 725.83 1115.34 725.984 1116.07 726.283C1116.79 726.582 1117.44 727.021 1118 727.573C1118.55 728.126 1118.99 728.782 1119.29 729.504C1119.59 730.226 1119.74 731 1119.74 731.782V796.619L1138.02 825.81Z" fill="#3F3D56"/>
<path d="M1011.47 729.984C1010.95 729.985 1010.46 730.19 1010.1 730.553C1009.73 730.916 1009.53 731.409 1009.53 731.923V790.637C1009.53 791.151 1009.73 791.644 1010.1 792.007C1010.46 792.37 1010.95 792.575 1011.47 792.576H1114.75C1115.27 792.575 1115.76 792.37 1116.12 792.007C1116.49 791.644 1116.69 791.151 1116.69 790.637V731.923C1116.69 731.409 1116.49 730.916 1116.12 730.553C1115.76 730.19 1115.27 729.985 1114.75 729.985L1011.47 729.984Z" fill="white"/>
<path d="M1012.14 800.33C1011.99 800.33 1011.83 800.376 1011.7 800.462C1011.56 800.547 1011.46 800.67 1011.39 800.814L1006.04 812.446C1005.98 812.572 1005.96 812.712 1005.97 812.851C1005.98 812.99 1006.02 813.124 1006.1 813.241C1006.17 813.359 1006.27 813.455 1006.4 813.522C1006.52 813.589 1006.66 813.624 1006.79 813.624H1119.3C1119.44 813.624 1119.58 813.588 1119.71 813.519C1119.83 813.45 1119.93 813.35 1120.01 813.23C1120.08 813.109 1120.12 812.972 1120.13 812.83C1120.14 812.689 1120.11 812.548 1120.04 812.421L1114.23 800.789C1114.16 800.651 1114.05 800.535 1113.92 800.454C1113.79 800.373 1113.64 800.33 1113.49 800.33L1012.14 800.33Z" fill="#2F2E41"/>
<path d="M1062.69 729.015C1063.38 729.015 1063.94 728.457 1063.94 727.769C1063.94 727.081 1063.38 726.523 1062.69 726.523C1062.01 726.523 1061.45 727.081 1061.45 727.769C1061.45 728.457 1062.01 729.015 1062.69 729.015Z" fill="white"/>
<path d="M1051.64 815.839C1051.45 815.84 1051.28 815.9 1051.13 816.011C1050.99 816.122 1050.88 816.278 1050.83 816.454L1049.49 821.439C1049.46 821.562 1049.45 821.692 1049.48 821.817C1049.5 821.942 1049.56 822.06 1049.64 822.161C1049.71 822.262 1049.81 822.344 1049.93 822.401C1050.04 822.457 1050.17 822.486 1050.29 822.486H1075.82C1075.95 822.486 1076.08 822.455 1076.2 822.394C1076.31 822.333 1076.42 822.245 1076.49 822.137C1076.57 822.029 1076.62 821.905 1076.64 821.774C1076.66 821.643 1076.64 821.509 1076.6 821.384L1074.88 816.398C1074.82 816.235 1074.71 816.094 1074.57 815.994C1074.43 815.893 1074.26 815.84 1074.09 815.839H1051.64Z" fill="#2F2E41"/>
<path d="M1119.74 795.206V796.315H1005.57L1005.65 796.176V795.206H1119.74Z" fill="#2F2E41"/>
<path d="M957.194 758.259C957.508 769.978 959.47 781.595 963.024 792.766C963.106 793.026 963.191 793.281 963.276 793.54H985.035C985.012 793.308 984.988 793.049 984.965 792.766C983.514 776.085 975.15 674.558 985.151 657.196C984.276 658.605 955.507 705.255 957.194 758.259Z" fill="#E6E6E6"/>
<path d="M958.826 792.766C959.008 793.026 959.198 793.285 959.391 793.54H975.714C975.591 793.32 975.447 793.06 975.281 792.766C972.584 787.899 964.603 773.346 957.194 758.259C949.232 742.046 941.927 725.217 942.542 719.127C942.352 720.5 936.843 762.376 958.826 792.766Z" fill="#E6E6E6"/>
<path d="M995.642 440.842L1004.49 433.766C997.616 433.008 994.792 436.756 993.637 439.723C988.268 437.494 982.423 440.416 982.423 440.416L1000.12 446.842C999.23 444.457 997.676 442.376 995.642 440.842V440.842Z" fill="#3F3D56"/>
<path d="M1262.09 404.418L1270.93 397.341C1264.06 396.583 1261.24 400.332 1260.08 403.299C1254.71 401.069 1248.87 403.991 1248.87 403.991L1266.57 410.418C1265.68 408.032 1264.12 405.951 1262.09 404.418V404.418Z" fill="#3F3D56"/>
<path d="M1211.15 498.325L1219.99 491.248C1213.12 490.49 1210.3 494.238 1209.14 497.205C1203.77 494.976 1197.93 497.898 1197.93 497.898L1215.63 504.324C1214.74 501.939 1213.18 499.858 1211.15 498.325V498.325Z" fill="#3F3D56"/>
<path d="M863.887 637.458C907.301 629.63 929.547 551.465 913.576 462.872C897.605 374.279 849.465 308.807 806.051 316.635C762.638 324.463 740.391 402.628 756.362 491.221C772.333 579.814 820.474 645.286 863.887 637.458Z" fill="#E6E6E6"/>
<path d="M821.888 446.537C828.913 465.644 835.165 485.011 840.643 504.638C846.111 524.247 850.789 544.054 854.675 564.058C858.561 584.056 861.643 604.189 863.919 624.455C866.183 644.685 867.638 664.985 868.284 685.353C868.925 705.7 868.748 726.05 867.752 746.405C867.63 748.898 867.495 751.391 867.347 753.884C867.197 756.437 871.168 756.428 871.318 753.884C872.518 733.465 872.895 713.021 872.448 692.552C871.998 672.2 870.734 651.888 868.657 631.615C866.574 611.284 863.689 591.055 860.001 570.929C856.311 550.811 851.818 530.863 846.523 511.085C841.231 491.329 835.146 471.808 828.269 452.523C827.43 450.172 826.579 447.825 825.716 445.482C824.842 443.103 821.003 444.131 821.888 446.537V446.537Z" fill="#3F3D56"/>
<path d="M849.247 521.699L866.838 482.635L871.797 471.624C872.047 471.166 872.112 470.629 871.98 470.124C871.848 469.619 871.527 469.184 871.084 468.908C870.629 468.646 870.088 468.574 869.58 468.707C869.072 468.84 868.637 469.168 868.368 469.62L850.777 508.684L845.819 519.695C845.568 520.153 845.503 520.69 845.635 521.195C845.768 521.7 846.088 522.135 846.531 522.412C846.986 522.673 847.527 522.745 848.035 522.612C848.543 522.479 848.979 522.151 849.247 521.699H849.247Z" fill="#3F3D56"/>
<path d="M853.134 548.391L813.023 533.35L801.717 529.111C801.21 528.975 800.669 529.045 800.212 529.304C799.755 529.564 799.419 529.992 799.275 530.498C799.146 531.005 799.219 531.543 799.477 531.998C799.736 532.453 800.16 532.791 800.662 532.94L840.773 547.981L852.078 552.221C852.586 552.356 853.127 552.287 853.584 552.027C854.04 551.768 854.377 551.339 854.521 550.834C854.649 550.326 854.577 549.789 854.318 549.334C854.06 548.879 853.636 548.541 853.134 548.391V548.391Z" fill="#3F3D56"/>
<path d="M821.899 761.461C821.899 761.461 870.208 745.577 915.208 761.461Z" fill="#E6E6E6"/>
<path d="M1038.06 753.935C1047.63 753.835 1057.21 753.664 1066.78 753.534C1069.97 753.491 1073.16 753.453 1076.35 753.42C1079.1 753.391 1079.11 749.115 1076.35 749.144C1066.78 749.243 1057.21 749.415 1047.64 749.545C1044.44 749.588 1041.25 749.626 1038.06 749.659C1035.31 749.687 1035.3 753.964 1038.06 753.935Z" fill="#7500C0"/>
<path d="M1038.06 763.913L1076.75 763.512L1087.75 763.398C1090.5 763.37 1090.51 759.093 1087.75 759.122L1049.07 759.523L1038.06 759.637C1035.31 759.665 1035.3 763.942 1038.06 763.913Z" fill="#7500C0"/>
<path d="M1038.06 773.892L1076.75 773.491L1087.75 773.377C1090.5 773.348 1090.51 769.072 1087.75 769.1L1049.07 769.501L1038.06 769.615C1035.31 769.644 1035.3 773.92 1038.06 773.892Z" fill="#7500C0"/>
</g>
<defs>
<clipPath id="clip0">
<rect width="669" height="575" fill="white" transform="translate(700 316)"/>
</clipPath>
</defs>
</svg>
